<svg xmlns="http://www.w3.org/2000/svg" width="240" height="174" viewBox="0 0 240 174" fill="none"><g clip-path="url(#clip0_2230_14956)"><g clip-path="url(#clip1_2230_14956)"><path d="M87.6384 1.03613L52.6631 15.0954L87.6384 13.6675V1.03613Z" stroke="white" stroke-width="2.13129" stroke-linejoin="round"></path><path d="M52.6631 15.0919L87.6384 27.1741V13.6641L52.6631 15.0919Z" stroke="white" stroke-width="2.13129" stroke-linejoin="round"></path><path d="M87.6396 14.0057V27.1861L94.3488 29.4928V51.2406L102.158 50.9111V13.127L87.6396 13.6762V14.0057Z" stroke="white" stroke-width="2.13129" stroke-linejoin="round"></path><path d="M87.6384 38.1761L52.6631 53.0043L94.3475 51.2468V29.499L87.6384 27.1924V38.1761Z" stroke="white" stroke-width="2.13129" stroke-linejoin="round"></path><path d="M52.6631 53.0103L94.3475 67.2894V51.2529L52.6631 53.0103Z" stroke="white" stroke-width="2.13129" stroke-linejoin="round"></path><path d="M52.6631 52.9966L87.6384 38.1735V27.1847L52.6631 15.1025V52.9966Z" stroke="white" stroke-width="2.13129" stroke-linejoin="round"></path><path d="M109.634 15.3472V17.8735H114.913V19.7407H109.634V22.4867H115.683V24.4638H107.544V13.3701H115.683V15.3472H109.634Z" fill="white"></path><path d="M125.365 12.8848V24.4178H123.275V23.4292C122.725 24.1981 121.846 24.6374 120.746 24.6374C118.546 24.6374 116.786 22.88 116.786 20.4636C116.786 18.0472 118.546 16.2898 120.746 16.2898C121.846 16.2898 122.725 16.7291 123.275 17.4979V12.9946H125.365V12.8848ZM123.385 20.3538C123.385 18.9259 122.396 18.0472 121.075 18.0472C119.756 18.0472 118.876 19.0357 118.876 20.3538C118.876 21.7816 119.756 22.7702 121.075 22.7702C122.396 22.7702 123.385 21.7816 123.385 20.3538Z" fill="white"></path><path d="M135.263 16.418V24.4361H133.174V23.4476C132.624 24.1066 131.744 24.6557 130.644 24.6557C128.554 24.6557 127.455 23.2279 127.455 21.141V16.418H129.544V20.7016C129.544 21.9098 130.094 22.6787 131.304 22.6787C132.514 22.6787 133.284 21.8 133.284 20.3721V16.418H135.263Z" fill="white"></path><path d="M136.805 20.3496C136.805 17.9332 138.564 16.1758 141.094 16.1758C143.294 16.1758 144.723 17.6037 145.054 18.8119L143.073 19.3611C142.854 18.7021 142.194 18.043 141.094 18.043C139.774 18.043 138.894 19.1414 138.894 20.3496C138.894 21.5578 139.774 22.7661 141.094 22.7661C142.083 22.7661 142.854 22.107 143.073 21.448L145.054 21.9972C144.723 23.2054 143.404 24.6333 141.204 24.6333C138.564 24.6333 136.805 22.7661 136.805 20.3496Z" fill="white"></path><path d="M145.93 20.3496C145.93 17.9332 147.69 16.1758 149.89 16.1758C150.99 16.1758 151.869 16.6151 152.419 17.384V16.3955H154.509V24.4136H152.419V23.4251C151.869 24.1939 150.99 24.6333 149.89 24.6333C147.69 24.6333 145.93 22.7661 145.93 20.3496ZM152.529 20.3496C152.529 18.9218 151.54 18.043 150.219 18.043C148.9 18.043 148.019 19.0315 148.019 20.3496C148.019 21.7775 148.9 22.7661 150.219 22.7661C151.54 22.7661 152.529 21.7775 152.529 20.3496Z" fill="white"></path><path d="M156.16 20.3496C156.16 17.9332 157.92 16.1758 160.449 16.1758C162.649 16.1758 164.079 17.6037 164.409 18.8119L162.429 19.3611C162.209 18.7021 161.549 18.043 160.449 18.043C159.13 18.043 158.25 19.1414 158.25 20.3496C158.25 21.5578 159.13 22.7661 160.449 22.7661C161.549 22.7661 162.209 22.107 162.429 21.448L164.409 21.9972C164.079 23.2054 162.759 24.6333 160.559 24.6333C157.92 24.6333 156.16 22.7661 156.16 20.3496Z" fill="white"></path><path d="M165.617 13.9719C165.617 13.3128 166.167 12.7637 166.827 12.7637C167.487 12.7637 168.037 13.3128 168.037 13.9719C168.037 14.6309 167.487 15.1801 166.827 15.1801C166.167 15.29 165.617 14.7408 165.617 13.9719ZM165.837 16.3883H167.927V24.4065H165.837V16.3883Z" fill="white"></path><path d="M169.467 20.3538C169.467 17.9373 171.336 16.1799 173.756 16.1799C176.176 16.1799 178.045 18.0472 178.045 20.3538C178.045 22.7702 176.285 24.5276 173.756 24.5276C171.336 24.6374 169.467 22.7702 169.467 20.3538ZM176.066 20.3538C176.066 19.0357 175.186 18.0472 173.866 18.0472C172.546 18.0472 171.666 19.0357 171.666 20.3538C171.666 21.6718 172.546 22.6603 173.866 22.6603C175.186 22.6603 176.066 21.6718 176.066 20.3538ZM173.976 12.8848H176.285L174.526 15.0815H172.766L173.976 12.8848Z" fill="white"></path><path d="M187.504 19.6905V24.4136H185.414V20.1299C185.414 18.9217 184.864 18.1528 183.654 18.1528C182.444 18.1528 181.675 19.0315 181.675 20.4594V24.4136H179.585V16.3955H181.675V17.384C182.225 16.7249 183.104 16.1758 184.204 16.1758C186.404 16.1758 187.504 17.6037 187.504 19.6905Z" fill="white"></path><path d="M116.566 32.4752C116.566 34.3424 115.136 36.3195 112.607 36.3195H109.637V39.7245H107.438V28.6309H112.607C115.246 28.6309 116.566 30.6079 116.566 32.4752ZM114.477 32.4752C114.477 31.4866 113.707 30.6079 112.717 30.6079H109.747V34.4523H112.607C113.817 34.3424 114.477 33.4637 114.477 32.4752Z" fill="white"></path><path d="M125.473 31.6603V39.6785H123.383V38.6899C122.833 39.349 121.954 39.8981 120.854 39.8981C118.764 39.8981 117.664 38.4702 117.664 36.3834V31.7701H119.754V36.0538C119.754 37.2621 120.304 38.0309 121.514 38.0309C122.723 38.0309 123.493 37.1522 123.493 35.7243V31.7701H125.473V31.6603ZM122.393 30.3422H120.633L121.843 28.1455H124.153L122.393 30.3422Z" fill="white"></path><path d="M136.251 35.6023C136.251 38.0187 134.492 39.7761 132.292 39.7761C131.192 39.7761 130.312 39.3367 129.652 38.5679V39.5564H127.562V28.0234H129.652V32.5268C130.202 31.7579 131.082 31.3186 132.292 31.3186C134.492 31.4284 136.251 33.1858 136.251 35.6023ZM134.161 35.6023C134.161 34.1743 133.282 33.2956 131.962 33.2956C130.642 33.2956 129.652 34.2842 129.652 35.6023C129.652 37.0301 130.642 38.0187 131.962 38.0187C133.172 37.9089 134.161 37.0301 134.161 35.6023Z" fill="white"></path><path d="M139.883 28.0234H137.793V39.5564H139.883V28.0234Z" fill="white"></path><path d="M141.751 29.2316C141.751 28.5726 142.301 28.0234 142.961 28.0234C143.62 28.0234 144.17 28.5726 144.17 29.2316C144.17 29.8907 143.62 30.4399 142.961 30.4399C142.301 30.4399 141.751 30.0005 141.751 29.2316ZM141.971 31.6481H144.061V39.6663H141.971V31.6481Z" fill="white"></path><path d="M145.6 35.6094C145.6 33.193 147.359 31.4355 149.889 31.4355C152.088 31.4355 153.518 32.8634 153.849 34.0717L151.868 34.6208C151.649 33.9618 150.989 33.3028 149.889 33.3028C148.569 33.3028 147.689 34.4011 147.689 35.6094C147.689 36.8176 148.569 38.0258 149.889 38.0258C150.989 38.0258 151.649 37.3668 151.868 36.7078L153.849 37.257C153.518 38.4651 152.199 39.8931 149.999 39.8931C147.469 39.7832 145.6 38.0258 145.6 35.6094Z" fill="white"></path><path d="M154.84 35.6094C154.84 33.193 156.6 31.4355 158.799 31.4355C159.899 31.4355 160.779 31.8749 161.329 32.6437V31.6552H163.418V39.6734H161.329V38.6848C160.779 39.4537 159.899 39.8931 158.799 39.8931C156.6 39.7832 154.84 38.0258 154.84 35.6094ZM161.439 35.6094C161.439 34.1815 160.449 33.3028 159.129 33.3028C157.809 33.3028 156.93 34.2913 156.93 35.6094C156.93 37.0373 157.809 38.0258 159.129 38.0258C160.339 37.916 161.439 37.0373 161.439 35.6094Z" fill="white"></path><path d="M112.937 45.7441V50.4672H112.057V47.3917L110.517 49.4786L108.978 47.3917V50.4672H108.098V45.7441H108.978L110.517 47.9409L112.057 45.7441H112.937Z" fill="white"></path><path d="M113.813 47.0387H114.693V50.4437H113.813V47.0387ZM113.813 46.0501C113.813 45.7207 114.033 45.501 114.363 45.501C114.693 45.501 114.913 45.7207 114.913 46.0501C114.913 46.3797 114.693 46.5993 114.363 46.5993C114.033 46.4895 113.813 46.2698 113.813 46.0501Z" fill="white"></path><path d="M118.984 48.4772V50.4542H118.104V48.587C118.104 48.0378 117.884 47.7083 117.334 47.7083C116.784 47.7083 116.454 48.1476 116.454 48.6969V50.4542H115.574V47.0493H116.454V47.4886C116.674 47.1591 117.114 46.9395 117.554 46.9395C118.544 46.9395 118.984 47.4886 118.984 48.4772Z" fill="white"></path><path d="M119.864 47.0387H120.745V50.4437H119.864V47.0387ZM119.755 46.0501C119.755 45.7207 119.974 45.501 120.305 45.501C120.635 45.501 120.855 45.7207 120.855 46.0501C120.855 46.3797 120.635 46.5993 120.305 46.5993C119.974 46.4895 119.755 46.2698 119.755 46.0501Z" fill="white"></path><path d="M121.295 49.477L122.064 49.2573C122.175 49.5868 122.505 49.8065 122.945 49.8065C123.275 49.8065 123.495 49.6966 123.495 49.477C123.495 49.2573 123.385 49.2573 123.164 49.1474L122.285 48.9277C121.845 48.818 121.405 48.4884 121.405 48.049C121.405 47.4999 122.064 47.0605 122.835 47.0605C123.604 47.0605 124.154 47.39 124.374 47.9393L123.604 48.1589C123.495 47.9393 123.275 47.7196 122.835 47.7196C122.505 47.7196 122.395 47.8294 122.395 48.049C122.395 48.1589 122.505 48.2687 122.725 48.2687L123.604 48.4884C124.154 48.5983 124.594 48.818 124.594 49.477C124.594 50.136 123.935 50.5753 123.054 50.5753C122.175 50.5753 121.515 50.0261 121.295 49.477Z" fill="white"></path><path d="M127.342 50.3808C127.123 50.4906 126.792 50.4906 126.573 50.4906C125.803 50.4906 125.473 50.0513 125.473 49.2824V47.8545H124.923V47.0856H125.473V45.9873H126.353V47.0856H127.342V47.8545H126.353V49.2824C126.353 49.6119 126.463 49.7218 126.792 49.7218C126.902 49.7218 127.013 49.7218 127.232 49.6119L127.342 50.3808Z" fill="white"></path><path d="M130.312 48.465C130.312 48.0256 129.982 47.6961 129.433 47.6961C128.883 47.6961 128.552 48.0256 128.552 48.465H130.312ZM127.562 48.6846C127.562 47.6961 128.333 46.8174 129.323 46.8174C130.422 46.8174 131.082 47.5862 131.082 48.5748C131.082 48.6846 131.082 48.7944 131.082 48.9043H128.442C128.552 49.3437 128.773 49.6731 129.433 49.6731C129.873 49.6731 130.092 49.4535 130.312 49.2338L131.082 49.4535C130.862 49.8928 130.312 50.442 129.433 50.442C128.333 50.5518 127.562 49.783 127.562 48.6846Z" fill="white"></path><path d="M133.832 46.9395V47.8182C133.062 47.7083 132.732 48.0378 132.732 48.9165V50.4542H131.853V47.0493H132.732V47.5985C132.952 47.1591 133.392 46.9395 133.832 46.9395Z" fill="white"></path><path d="M134.494 47.0387H135.374V50.4437H134.494V47.0387ZM134.384 46.0501C134.384 45.7207 134.603 45.501 134.934 45.501C135.263 45.501 135.484 45.7207 135.484 46.0501C135.484 46.3797 135.263 46.5993 134.934 46.5993C134.603 46.4895 134.384 46.2698 134.384 46.0501Z" fill="white"></path><path d="M138.893 48.6846C138.893 48.1354 138.453 47.6961 137.903 47.6961C137.353 47.6961 136.913 48.1354 136.913 48.6846C136.913 49.2338 137.353 49.6731 137.903 49.6731C138.453 49.783 138.893 49.3437 138.893 48.6846ZM136.033 48.6846C136.033 47.6961 136.803 46.8174 137.903 46.8174C139.003 46.8174 139.772 47.5862 139.772 48.6846C139.772 49.6731 139.003 50.5518 137.903 50.5518C136.803 50.5518 136.033 49.783 136.033 48.6846Z" fill="white"></path><path d="M144.721 48.675C144.721 48.1258 144.281 47.6865 143.731 47.6865C143.181 47.6865 142.741 48.1258 142.741 48.675C142.741 49.2242 143.181 49.6635 143.731 49.6635C144.281 49.7734 144.721 49.334 144.721 48.675ZM145.6 45.4897V50.4324H144.721V49.993C144.501 50.3225 144.061 50.5422 143.621 50.5422C142.631 50.5422 141.861 49.7734 141.861 48.675C141.861 47.5766 142.631 46.8078 143.621 46.8078C144.061 46.8078 144.501 47.0275 144.721 47.3569V45.3799H145.6V45.4897Z" fill="white"></path><path d="M149.01 48.465C149.01 48.0256 148.68 47.6961 148.13 47.6961C147.58 47.6961 147.25 48.0256 147.25 48.465H149.01ZM146.26 48.6846C146.26 47.6961 147.03 46.8174 148.02 46.8174C149.12 46.8174 149.779 47.5862 149.779 48.5748C149.779 48.6846 149.779 48.7944 149.779 48.9043H147.14C147.25 49.3437 147.47 49.6731 148.13 49.6731C148.57 49.6731 148.789 49.4535 149.01 49.2338L149.779 49.4535C149.56 49.8928 149.01 50.442 148.13 50.442C147.03 50.5518 146.26 49.783 146.26 48.6846Z" fill="white"></path><path d="M153.189 46.513V47.6113H155.389V48.49H153.189V49.5884H155.719V50.4672H152.199V45.7441H155.719V46.513H153.189Z" fill="white"></path><path d="M159.018 48.675C159.018 48.1258 158.578 47.6865 158.029 47.6865C157.479 47.6865 157.038 48.1258 157.038 48.675C157.038 49.2242 157.479 49.6635 158.029 49.6635C158.578 49.7734 159.018 49.334 159.018 48.675ZM159.898 45.4897V50.4324H159.018V49.993C158.798 50.3225 158.358 50.5422 157.918 50.5422C156.929 50.5422 156.269 49.7734 156.269 48.675C156.269 47.5766 157.038 46.8078 157.918 46.8078C158.358 46.8078 158.798 47.0275 159.018 47.3569V45.3799H159.898V45.4897Z" fill="white"></path><path d="M164.188 47.0605V50.4655H163.308V50.0261C163.089 50.3557 162.648 50.5753 162.208 50.5753C161.329 50.5753 160.889 49.9163 160.889 49.0376V47.0605H161.768V48.9277C161.768 49.477 161.989 49.8065 162.539 49.8065C163.089 49.8065 163.418 49.3671 163.418 48.818V47.1704H164.188V47.0605Z" fill="white"></path><path d="M164.85 48.6969C164.85 47.7083 165.619 46.9395 166.719 46.9395C167.709 46.9395 168.259 47.5985 168.369 48.0378L167.489 48.2575C167.379 47.928 167.049 47.7083 166.609 47.7083C166.059 47.7083 165.619 48.1476 165.619 48.6969C165.619 49.246 165.95 49.6854 166.609 49.6854C167.049 49.6854 167.379 49.4657 167.489 49.1362L168.369 49.3559C168.259 49.9051 167.599 50.4542 166.719 50.4542C165.619 50.5641 164.85 49.7952 164.85 48.6969Z" fill="white"></path><path d="M171.666 48.6846C171.666 48.1354 171.226 47.6961 170.676 47.6961C170.126 47.6961 169.686 48.1354 169.686 48.6846C169.686 49.2338 170.126 49.6731 170.676 49.6731C171.226 49.783 171.666 49.3437 171.666 48.6846ZM168.806 48.6846C168.806 47.5862 169.576 46.8174 170.456 46.8174C170.895 46.8174 171.335 47.0371 171.556 47.3665V46.9272H172.435V50.442H171.556V50.0027C171.335 50.3321 170.895 50.5518 170.456 50.5518C169.576 50.5518 168.806 49.783 168.806 48.6846Z" fill="white"></path><path d="M173.208 48.6969C173.208 47.7083 173.978 46.9395 175.078 46.9395C176.067 46.9395 176.617 47.5985 176.727 48.0378L175.848 48.2575C175.738 47.928 175.407 47.7083 174.967 47.7083C174.417 47.7083 173.978 48.1476 173.978 48.6969C173.978 49.246 174.307 49.6854 174.967 49.6854C175.407 49.6854 175.738 49.4657 175.848 49.1362L176.727 49.3559C176.617 49.9051 175.957 50.4542 175.078 50.4542C173.978 50.5641 173.208 49.7952 173.208 48.6969Z" fill="white"></path><path d="M177.386 47.0387H178.266V50.4437H177.386V47.0387ZM177.276 46.0501C177.276 45.7207 177.497 45.501 177.826 45.501C178.156 45.501 178.376 45.7207 178.376 46.0501C178.376 46.3797 178.156 46.5993 177.826 46.5993C177.497 46.5993 177.276 46.2698 177.276 46.0501Z" fill="white"></path><path d="M180.906 45.501H181.896L181.126 46.4895H180.356L180.906 45.501ZM181.786 48.6863C181.786 48.1371 181.346 47.6977 180.796 47.6977C180.246 47.6977 179.806 48.1371 179.806 48.6863C179.806 49.2354 180.246 49.6748 180.796 49.6748C181.346 49.7847 181.786 49.3453 181.786 48.6863ZM178.927 48.6863C178.927 47.6977 179.696 46.819 180.796 46.819C181.896 46.819 182.666 47.5879 182.666 48.6863C182.666 49.6748 181.896 50.5535 180.796 50.5535C179.696 50.5535 178.927 49.7847 178.927 48.6863Z" fill="white"></path><path d="M186.735 48.4772V50.4542H185.745V48.587C185.745 48.0378 185.526 47.7083 184.976 47.7083C184.426 47.7083 184.096 48.1476 184.096 48.6969V50.4542H183.216V47.0493H184.096V47.4886C184.316 47.1591 184.756 46.9395 185.195 46.9395C186.186 46.9395 186.735 47.4886 186.735 48.4772Z" fill="white"></path></g><path d="M149.373 107.281C151.467 107.281 153.351 109.375 153.351 111.464V140.954H145.185V107.281H149.373Z" fill="white"></path><path d="M137.952 123.794C140.465 122.121 141.512 119.82 141.512 116.892C141.512 114.592 140.675 112.709 139.209 111.036C137.324 109.154 134.183 108.108 130.414 108.108H114.709V141.572H130.623C138.581 141.572 143.188 138.225 143.188 132.16C143.397 127.977 141.722 125.467 137.952 123.794ZM130.833 134.042H122.875V127.977H130.623C133.764 127.977 135.44 129.023 135.44 130.905C135.23 132.997 133.764 134.042 130.833 134.042ZM122.875 120.866V115.01H129.367C131.252 115.01 133.555 115.428 133.555 117.938C133.555 119.82 132.089 120.866 128.948 120.866H122.875ZM170.201 107.899H157.008V141.363H170.201C175.226 141.363 179.833 139.689 182.974 136.552C186.115 133.415 188 129.232 188 124.631C188 114.801 180.461 107.899 170.201 107.899ZM179.414 124.631C179.414 130.278 175.645 133.833 170.201 133.833H165.175V115.219H170.201C175.855 115.219 179.414 118.984 179.414 124.631Z" fill="white"></path><path d="M80.7856 129.651C76.3881 136.553 90.4181 136.762 83.9266 149.729C83.7172 149.729 83.5078 149.729 83.2984 149.729C68.4307 151.821 54.4007 141.573 52.3066 126.514C51.2596 120.03 52.9349 112.919 56.7041 107.272C56.0759 123.168 84.7642 123.168 80.7856 129.651ZM86.8583 149.102C88.3241 146.383 91.4652 142.409 98.3755 134.252C108.636 122.122 78.2727 126.305 73.0376 117.102C68.6401 109.573 84.7642 104.135 94.3968 99.9521C100.888 104.344 105.286 111.037 106.333 118.776C108.427 132.579 99.8413 145.337 86.8583 149.102ZM77.8539 114.593C76.8069 115.22 78.6915 117.521 83.2984 117.73C88.1147 117.73 82.042 112.501 77.8539 114.593ZM88.1147 117.102C84.5548 116.057 86.8583 118.776 88.5335 118.985C90.4181 119.194 90.6275 117.939 88.1147 117.102ZM91.884 119.821C90.6275 119.821 90.4181 120.449 92.3028 120.867C94.8156 121.494 93.1404 120.03 91.884 119.821Z" fill="white"></path></g><defs><clipPath id="clip0_2230_14956"><rect width="240" height="173.626" fill="white" transform="translate(0 0.374023)"></rect></clipPath><clipPath id="clip1_2230_14956"><rect width="136" height="67.5776" fill="white" transform="translate(52 0.374023)"></rect></clipPath></defs></svg>