<svg width="294" height="251" viewBox="0 0 294 251" fill="none" xmlns="http://www.w3.org/2000/svg">
<path d="M1.1658 135.003H4.2746V148.604H1.1658V135.003ZM13.6213 138.675C15.9335 138.675 17.3907 140.21 17.3907 142.561V148.604H16.3998V142.561C16.3998 140.773 15.37 139.607 13.5436 139.607C11.6394 139.607 10.1433 140.851 10.1433 143.474V148.604H9.17182V138.889H10.1433V140.734C10.8817 139.297 12.1252 138.675 13.6213 138.675ZM27.3432 139.841H24.4482V146.155C24.4482 147.865 25.3614 147.904 27.3432 147.729V148.604C24.7979 148.992 23.4572 148.37 23.4572 146.155V139.841H21.3199V138.889H23.4572V136.46L24.4482 136.168V138.889H27.3432V139.841ZM35.6879 138.675C38.6413 138.675 40.4871 141.123 40.4871 143.785C40.4871 143.94 40.4677 144.096 40.4677 144.251H31.6659C31.8991 146.447 33.57 147.885 35.7851 147.885C37.3783 147.885 38.583 147.146 39.1464 146.116L40.0014 146.622C39.2047 147.943 37.6892 148.817 35.7656 148.817C32.7734 148.817 30.6555 146.68 30.6555 143.746C30.6555 140.89 32.7151 138.675 35.6879 138.675ZM35.6879 139.607C33.4729 139.607 31.8602 141.142 31.6659 143.299H39.4768C39.263 140.929 37.592 139.607 35.6879 139.607ZM44.9878 148.604V134.42H45.9593V148.604H44.9878ZM51.6693 136.537C51.2418 136.537 50.8921 136.188 50.8921 135.76C50.8921 135.352 51.2418 135.003 51.6693 135.003C52.0968 135.003 52.4465 135.352 52.4465 135.76C52.4465 136.188 52.0968 136.537 51.6693 136.537ZM51.1835 148.604V138.889H52.155V148.604H51.1835ZM66.0062 138.889H66.9777V148.137C66.9777 151.052 64.8209 152.703 62.1396 152.703C59.8663 152.703 58.2536 151.79 57.5541 150.372L58.409 149.886C58.9142 150.916 60.0023 151.771 62.1396 151.771C64.5683 151.771 66.0062 150.352 66.0062 148.137V146.35C65.2095 147.846 63.7134 148.817 61.8287 148.817C59.0502 148.817 56.7963 146.622 56.7963 143.746C56.7963 140.87 59.0502 138.675 61.8287 138.675C63.7134 138.675 65.2095 139.646 66.0062 141.142V138.889ZM61.887 147.885C64.1992 147.885 66.0062 146.058 66.0062 143.746C66.0062 141.434 64.1992 139.607 61.887 139.607C59.5748 139.607 57.7678 141.434 57.7678 143.746C57.7678 146.058 59.5748 147.885 61.887 147.885ZM76.5801 138.675C79.5335 138.675 81.3793 141.123 81.3793 143.785C81.3793 143.94 81.3599 144.096 81.3599 144.251H72.5581C72.7913 146.447 74.4623 147.885 76.6773 147.885C78.2705 147.885 79.4752 147.146 80.0387 146.116L80.8936 146.622C80.097 147.943 78.5814 148.817 76.6578 148.817C73.6656 148.817 71.5478 146.68 71.5478 143.746C71.5478 140.89 73.6073 138.675 76.5801 138.675ZM76.5801 139.607C74.3651 139.607 72.7524 141.142 72.5581 143.299H80.369C80.1552 140.929 78.4843 139.607 76.5801 139.607ZM90.3295 138.675C92.6417 138.675 94.099 140.21 94.099 142.561V148.604H93.108V142.561C93.108 140.773 92.0782 139.607 90.2518 139.607C88.3477 139.607 86.8516 140.851 86.8516 143.474V148.604H85.8801V138.889H86.8516V140.734C87.5899 139.297 88.8334 138.675 90.3295 138.675ZM103.527 148.817C100.593 148.817 98.4168 146.622 98.4168 143.746C98.4168 140.87 100.593 138.675 103.527 138.675C105.431 138.675 107.063 139.646 107.763 141.162L106.966 141.628C106.403 140.404 105.081 139.607 103.527 139.607C101.176 139.607 99.4077 141.434 99.4077 143.746C99.4077 146.058 101.176 147.885 103.527 147.885C105.101 147.885 106.383 147.069 107.024 145.864L107.84 146.35C107.063 147.846 105.431 148.817 103.527 148.817ZM112.685 136.537C112.257 136.537 111.907 136.188 111.907 135.76C111.907 135.352 112.257 135.003 112.685 135.003C113.112 135.003 113.462 135.352 113.462 135.76C113.462 136.188 113.112 136.537 112.685 136.537ZM112.199 148.604V138.889H113.17V148.604H112.199ZM126.944 138.889H127.935V148.604H126.944V146.408C126.128 147.865 124.632 148.817 122.766 148.817C120.007 148.817 117.734 146.622 117.734 143.746C117.734 140.87 120.007 138.675 122.766 138.675C124.632 138.675 126.128 139.627 126.944 141.084V138.889ZM122.844 147.885C125.156 147.885 126.944 146.058 126.944 143.746C126.944 141.434 125.156 139.607 122.844 139.607C120.532 139.607 118.725 141.434 118.725 143.746C118.725 146.058 120.532 147.885 122.844 147.885ZM149.126 135.003H150.098V148.604H149.126V146.35C148.33 147.846 146.834 148.817 144.949 148.817C142.171 148.817 139.917 146.622 139.917 143.746C139.917 140.87 142.171 138.675 144.949 138.675C146.834 138.675 148.33 139.646 149.126 141.142V135.003ZM145.007 147.885C147.319 147.885 149.126 146.058 149.126 143.746C149.126 141.434 147.319 139.607 145.007 139.607C142.695 139.607 140.888 141.434 140.888 143.746C140.888 146.058 142.695 147.885 145.007 147.885ZM159.683 138.675C162.636 138.675 164.482 141.123 164.482 143.785C164.482 143.94 164.463 144.096 164.463 144.251H155.661C155.894 146.447 157.565 147.885 159.78 147.885C161.373 147.885 162.578 147.146 163.141 146.116L163.996 146.622C163.2 147.943 161.684 148.817 159.761 148.817C156.768 148.817 154.65 146.68 154.65 143.746C154.65 140.89 156.71 138.675 159.683 138.675ZM159.683 139.607C157.468 139.607 155.855 141.142 155.661 143.299H163.472C163.258 140.929 161.587 139.607 159.683 139.607ZM181.503 135.003C185.253 135.003 188.109 137.956 188.109 141.803C188.109 145.65 185.253 148.604 181.503 148.604H176.063V135.003H181.503ZM181.503 145.611C183.64 145.611 185.117 144.135 185.117 141.803C185.117 139.471 183.64 137.995 181.503 137.995H179.171V145.611H181.503ZM200.967 138.889H201.957V148.604H200.967V146.408C200.15 147.865 198.654 148.817 196.789 148.817C194.03 148.817 191.757 146.622 191.757 143.746C191.757 140.87 194.03 138.675 196.789 138.675C198.654 138.675 200.15 139.627 200.967 141.084V138.889ZM196.867 147.885C199.179 147.885 200.967 146.058 200.967 143.746C200.967 141.434 199.179 139.607 196.867 139.607C194.555 139.607 192.748 141.434 192.748 143.746C192.748 146.058 194.555 147.885 196.867 147.885ZM212.145 139.841H209.25V146.155C209.25 147.865 210.163 147.904 212.145 147.729V148.604C209.599 148.992 208.259 148.37 208.259 146.155V139.841H206.121V138.889H208.259V136.46L209.25 136.168V138.889H212.145V139.841ZM220.567 148.817C217.73 148.817 215.457 146.622 215.457 143.746C215.457 140.87 217.73 138.675 220.567 138.675C223.384 138.675 225.658 140.87 225.658 143.746C225.658 146.622 223.384 148.817 220.567 148.817ZM220.567 147.885C222.879 147.885 224.667 146.058 224.667 143.746C224.667 141.434 222.879 139.607 220.567 139.607C218.255 139.607 216.448 141.434 216.448 143.746C216.448 146.058 218.255 147.885 220.567 147.885ZM230.697 141.434C230.697 144.037 236.584 142.502 236.584 146.058C236.584 147.651 235.185 148.817 233.106 148.817C231.163 148.817 229.881 147.904 229.414 146.661L230.25 146.175C230.599 147.224 231.649 147.885 233.106 147.885C234.466 147.885 235.612 147.282 235.612 146.058C235.612 143.416 229.725 144.931 229.725 141.434C229.725 139.899 231.046 138.675 233.028 138.675C234.602 138.675 235.807 139.433 236.331 140.618L235.515 141.084C235.107 140.074 234.097 139.607 233.028 139.607C231.765 139.607 230.697 140.268 230.697 141.434ZM4.2746 169.611H9.715V172.604H1.1658V159.003H9.61785V161.995H4.2746V164.249H9.1321V167.202H4.2746V169.611ZM14.6899 165.434C14.6899 168.037 20.5772 166.502 20.5772 170.058C20.5772 171.651 19.1783 172.817 17.0993 172.817C15.1563 172.817 13.8739 171.904 13.4076 170.661L14.2431 170.175C14.5928 171.224 15.642 171.885 17.0993 171.885C18.4594 171.885 19.6057 171.282 19.6057 170.058C19.6057 167.416 13.7184 168.931 13.7184 165.434C13.7184 163.899 15.0397 162.675 17.0215 162.675C18.5954 162.675 19.8 163.433 20.3246 164.618L19.5086 165.084C19.1006 164.074 18.0902 163.607 17.0215 163.607C15.7586 163.607 14.6899 164.268 14.6899 165.434ZM29.753 163.841H26.8579V170.155C26.8579 171.865 27.7711 171.904 29.753 171.729V172.604C27.2077 172.992 25.867 172.37 25.867 170.155V163.841H23.7297V162.889H25.867V160.46L26.8579 160.168V162.889H29.753V163.841ZM35.2856 164.793C35.9463 163.258 37.2092 162.753 38.5305 162.753V163.685C36.8595 163.685 35.2856 164.715 35.2856 167.202V172.604H34.3141V162.889H35.2856V164.793ZM50.6909 162.889H51.6818V172.604H50.6909V170.408C49.8748 171.865 48.3787 172.817 46.5134 172.817C43.7543 172.817 41.481 170.622 41.481 167.746C41.481 164.87 43.7543 162.675 46.5134 162.675C48.3787 162.675 49.8748 163.627 50.6909 165.084V162.889ZM46.5911 171.885C48.9033 171.885 50.6909 170.058 50.6909 167.746C50.6909 165.434 48.9033 163.607 46.5911 163.607C44.279 163.607 42.472 165.434 42.472 167.746C42.472 170.058 44.279 171.885 46.5911 171.885ZM61.869 163.841H58.9739V170.155C58.9739 171.865 59.8871 171.904 61.869 171.729V172.604C59.3236 172.992 57.983 172.37 57.983 170.155V163.841H55.8457V162.889H57.983V160.46L58.9739 160.168V162.889H61.869V163.841ZM72.0012 159.061L70.2331 161.528H69.281L70.8354 159.061H72.0012ZM70.2137 162.675C73.167 162.675 75.0129 165.123 75.0129 167.785C75.0129 167.94 74.9934 168.096 74.9934 168.251H66.1917C66.4248 170.447 68.0958 171.885 70.3108 171.885C71.9041 171.885 73.1087 171.146 73.6722 170.116L74.5271 170.622C73.7305 171.943 72.215 172.817 70.2914 172.817C67.2992 172.817 65.1813 170.68 65.1813 167.746C65.1813 164.89 67.2409 162.675 70.2137 162.675ZM70.2137 163.607C67.9986 163.607 66.386 165.142 66.1917 167.299H74.0025C73.7888 164.929 72.1178 163.607 70.2137 163.607ZM88.1405 162.889H89.112V172.137C89.112 175.052 86.9553 176.703 84.274 176.703C82.0006 176.703 80.388 175.79 79.6885 174.372L80.5434 173.886C81.0486 174.916 82.1367 175.771 84.274 175.771C86.7027 175.771 88.1405 174.352 88.1405 172.137V170.35C87.3439 171.846 85.8478 172.817 83.9631 172.817C81.1846 172.817 78.9307 170.622 78.9307 167.746C78.9307 164.87 81.1846 162.675 83.9631 162.675C85.8478 162.675 87.3439 163.646 88.1405 165.142V162.889ZM84.0214 171.885C86.3335 171.885 88.1405 170.058 88.1405 167.746C88.1405 165.434 86.3335 163.607 84.0214 163.607C81.7092 163.607 79.9022 165.434 79.9022 167.746C79.9022 170.058 81.7092 171.885 84.0214 171.885ZM94.8285 160.537C94.401 160.537 94.0513 160.188 94.0513 159.76C94.0513 159.352 94.401 159.003 94.8285 159.003C95.256 159.003 95.6057 159.352 95.6057 159.76C95.6057 160.188 95.256 160.537 94.8285 160.537ZM94.3427 172.604V162.889H95.3142V172.604H94.3427ZM104.988 172.817C102.054 172.817 99.8778 170.622 99.8778 167.746C99.8778 164.87 102.054 162.675 104.988 162.675C106.892 162.675 108.524 163.646 109.224 165.162L108.427 165.628C107.864 164.404 106.542 163.607 104.988 163.607C102.637 163.607 100.869 165.434 100.869 167.746C100.869 170.058 102.637 171.885 104.988 171.885C106.562 171.885 107.844 171.069 108.485 169.864L109.301 170.35C108.524 171.846 106.892 172.817 104.988 172.817ZM122.114 162.889H123.105V172.604H122.114V170.408C121.298 171.865 119.802 172.817 117.937 172.817C115.178 172.817 112.904 170.622 112.904 167.746C112.904 164.87 115.178 162.675 117.937 162.675C119.802 162.675 121.298 163.627 122.114 165.084V162.889ZM118.014 171.885C120.327 171.885 122.114 170.058 122.114 167.746C122.114 165.434 120.327 163.607 118.014 163.607C115.702 163.607 113.895 165.434 113.895 167.746C113.895 170.058 115.702 171.885 118.014 171.885ZM128.979 165.434C128.979 168.037 134.866 166.502 134.866 170.058C134.866 171.651 133.467 172.817 131.388 172.817C129.445 172.817 128.163 171.904 127.696 170.661L128.532 170.175C128.882 171.224 129.931 171.885 131.388 171.885C132.748 171.885 133.895 171.282 133.895 170.058C133.895 167.416 128.007 168.931 128.007 165.434C128.007 163.899 129.329 162.675 131.31 162.675C132.884 162.675 134.089 163.433 134.614 164.618L133.797 165.084C133.389 164.074 132.379 163.607 131.31 163.607C130.048 163.607 128.979 164.268 128.979 165.434ZM153.969 162.889H155.018L150.821 173.497C150.083 175.363 148.645 176.626 146.974 176.49V175.576C148.276 175.693 149.267 174.721 149.869 173.303L150.083 172.778L145.614 162.889H146.663L150.588 171.535L153.969 162.889ZM174.718 172.604L174.038 170.466H168.986L168.306 172.604H164.906L169.53 159.003H173.494L178.118 172.604H174.718ZM169.919 167.552H173.106L171.512 162.558L169.919 167.552ZM186.288 162.675C188.6 162.675 190.057 164.21 190.057 166.561V172.604H189.066V166.561C189.066 164.773 188.037 163.607 186.21 163.607C184.306 163.607 182.81 164.851 182.81 167.474V172.604H181.839V162.889H182.81V164.734C183.548 163.297 184.792 162.675 186.288 162.675ZM203.585 162.889H204.576V172.604H203.585V170.408C202.769 171.865 201.273 172.817 199.408 172.817C196.649 172.817 194.375 170.622 194.375 167.746C194.375 164.87 196.649 162.675 199.408 162.675C201.273 162.675 202.769 163.627 203.585 165.084V162.889ZM199.485 171.885C201.797 171.885 203.585 170.058 203.585 167.746C203.585 165.434 201.797 163.607 199.485 163.607C197.173 163.607 195.366 165.434 195.366 167.746C195.366 170.058 197.173 171.885 199.485 171.885ZM209.789 172.604V158.42H210.761V172.604H209.789ZM215.946 161.528H216.898L218.2 159.061H217.015L215.946 161.528ZM215.985 172.604V162.889H216.956V172.604H215.985ZM227.155 163.841H224.259V170.155C224.259 171.865 225.173 171.904 227.155 171.729V172.604C224.609 172.992 223.269 172.37 223.269 170.155V163.841H221.131V162.889H223.269V160.46L224.259 160.168V162.889H227.155V163.841ZM232.201 160.537C231.774 160.537 231.424 160.188 231.424 159.76C231.424 159.352 231.774 159.003 232.201 159.003C232.629 159.003 232.979 159.352 232.979 159.76C232.979 160.188 232.629 160.537 232.201 160.537ZM231.716 172.604V162.889H232.687V172.604H231.716ZM242.361 172.817C239.427 172.817 237.251 170.622 237.251 167.746C237.251 164.87 239.427 162.675 242.361 162.675C244.265 162.675 245.897 163.646 246.597 165.162L245.8 165.628C245.237 164.404 243.915 163.607 242.361 163.607C240.01 163.607 238.242 165.434 238.242 167.746C238.242 170.058 240.01 171.885 242.361 171.885C243.935 171.885 245.217 171.069 245.858 169.864L246.674 170.35C245.897 171.846 244.265 172.817 242.361 172.817ZM259.487 162.889H260.478V172.604H259.487V170.408C258.671 171.865 257.175 172.817 255.31 172.817C252.551 172.817 250.277 170.622 250.277 167.746C250.277 164.87 252.551 162.675 255.31 162.675C257.175 162.675 258.671 163.627 259.487 165.084V162.889ZM255.387 171.885C257.7 171.885 259.487 170.058 259.487 167.746C259.487 165.434 257.7 163.607 255.387 163.607C253.075 163.607 251.268 165.434 251.268 167.746C251.268 170.058 253.075 171.885 255.387 171.885ZM6.64506 187.675C9.42355 187.675 11.6774 189.87 11.6774 192.746C11.6774 195.622 9.42355 197.817 6.64506 197.817C4.76035 197.817 3.26424 196.846 2.46761 195.35V201.49H1.49611V187.889H2.46761V190.142C3.26424 188.646 4.76035 187.675 6.64506 187.675ZM6.58677 196.885C8.89894 196.885 10.7059 195.058 10.7059 192.746C10.7059 190.434 8.89894 188.607 6.58677 188.607C4.2746 188.607 2.46761 190.434 2.46761 192.746C2.46761 195.058 4.2746 196.885 6.58677 196.885ZM24.7986 187.889H25.7895V197.604H24.7986V195.408C23.9825 196.865 22.4864 197.817 20.6211 197.817C17.862 197.817 15.5887 195.622 15.5887 192.746C15.5887 189.87 17.862 187.675 20.6211 187.675C22.4864 187.675 23.9825 188.627 24.7986 190.084V187.889ZM20.6988 196.885C23.011 196.885 24.7986 195.058 24.7986 192.746C24.7986 190.434 23.011 188.607 20.6988 188.607C18.3867 188.607 16.5797 190.434 16.5797 192.746C16.5797 195.058 18.3867 196.885 20.6988 196.885ZM31.9741 189.793C32.6347 188.258 33.8977 187.753 35.2189 187.753V188.685C33.5479 188.685 31.9741 189.715 31.9741 192.202V197.604H31.0026V187.889H31.9741V189.793ZM47.3793 187.889H48.3702V197.604H47.3793V195.408C46.5632 196.865 45.0671 197.817 43.2019 197.817C40.4428 197.817 38.1695 195.622 38.1695 192.746C38.1695 189.87 40.4428 187.675 43.2019 187.675C45.0671 187.675 46.5632 188.627 47.3793 190.084V187.889ZM43.2796 196.885C45.5917 196.885 47.3793 195.058 47.3793 192.746C47.3793 190.434 45.5917 188.607 43.2796 188.607C40.9674 188.607 39.1604 190.434 39.1604 192.746C39.1604 195.058 40.9674 196.885 43.2796 196.885ZM60.9934 197.604V183.42H61.9649V197.604H60.9934ZM75.7383 187.889H76.7292V197.604H75.7383V195.408C74.9223 196.865 73.4261 197.817 71.5609 197.817C68.8018 197.817 66.5285 195.622 66.5285 192.746C66.5285 189.87 68.8018 187.675 71.5609 187.675C73.4261 187.675 74.9223 188.627 75.7383 190.084V187.889ZM71.6386 196.885C73.9508 196.885 75.7383 195.058 75.7383 192.746C75.7383 190.434 73.9508 188.607 71.6386 188.607C69.3264 188.607 67.5194 190.434 67.5194 192.746C67.5194 195.058 69.3264 196.885 71.6386 196.885ZM90.5765 196.632H97.377V197.604H89.5467V184.003H97.2799V184.974H90.5765V190.259H96.7941V191.23H90.5765V196.632ZM110.321 184.003H111.293V197.604H110.321V195.35C109.525 196.846 108.029 197.817 106.144 197.817C103.365 197.817 101.112 195.622 101.112 192.746C101.112 189.87 103.365 187.675 106.144 187.675C108.029 187.675 109.525 188.646 110.321 190.142V184.003ZM106.202 196.885C108.514 196.885 110.321 195.058 110.321 192.746C110.321 190.434 108.514 188.607 106.202 188.607C103.89 188.607 102.083 190.434 102.083 192.746C102.083 195.058 103.89 196.885 106.202 196.885ZM123.501 187.889H124.472V197.604H123.501V195.758C122.763 197.195 121.519 197.817 120.023 197.817C117.711 197.817 116.253 196.282 116.253 193.931V187.889H117.244V193.931C117.244 195.719 118.274 196.885 120.101 196.885C122.005 196.885 123.501 195.641 123.501 193.018V187.889ZM134.153 197.817C131.219 197.817 129.043 195.622 129.043 192.746C129.043 189.87 131.219 187.675 134.153 187.675C136.057 187.675 137.689 188.646 138.389 190.162L137.592 190.628C137.028 189.404 135.707 188.607 134.153 188.607C131.802 188.607 130.034 190.434 130.034 192.746C130.034 195.058 131.802 196.885 134.153 196.885C135.727 196.885 137.009 196.069 137.65 194.864L138.466 195.35C137.689 196.846 136.057 197.817 134.153 197.817ZM151.279 187.889H152.27V197.604H151.279V195.408C150.463 196.865 148.967 197.817 147.102 197.817C144.343 197.817 142.069 195.622 142.069 192.746C142.069 189.87 144.343 187.675 147.102 187.675C148.967 187.675 150.463 188.627 151.279 190.084V187.889ZM147.179 196.885C149.492 196.885 151.279 195.058 151.279 192.746C151.279 190.434 149.492 188.607 147.179 188.607C144.867 188.607 143.06 190.434 143.06 192.746C143.06 195.058 144.867 196.885 147.179 196.885ZM161.933 197.817C158.999 197.817 156.823 195.622 156.823 192.746C156.823 189.87 158.999 187.675 161.933 187.675C163.837 187.675 165.469 188.646 166.168 190.162L165.372 190.628C164.808 189.404 163.487 188.607 161.933 188.607C159.582 188.607 157.813 190.434 157.813 192.746C157.813 195.058 159.582 196.885 161.933 196.885C163.506 196.885 164.789 196.069 165.43 194.864L166.246 195.35C165.469 196.846 163.837 197.817 161.933 197.817ZM171.09 185.537C170.663 185.537 170.313 185.188 170.313 184.76C170.313 184.352 170.663 184.003 171.09 184.003C171.518 184.003 171.868 184.352 171.868 184.76C171.868 185.188 171.518 185.537 171.09 185.537ZM170.605 197.604V187.889H171.576V197.604H170.605ZM180.375 186.528H181.327L183.096 184.061H181.93L180.375 186.528ZM181.25 197.817C178.413 197.817 176.14 195.622 176.14 192.746C176.14 189.87 178.413 187.675 181.25 187.675C184.067 187.675 186.34 189.87 186.34 192.746C186.34 195.622 184.067 197.817 181.25 197.817ZM181.25 196.885C183.562 196.885 185.349 195.058 185.349 192.746C185.349 190.434 183.562 188.607 181.25 188.607C178.938 188.607 177.131 190.434 177.131 192.746C177.131 195.058 178.938 196.885 181.25 196.885ZM195.358 187.675C197.67 187.675 199.127 189.21 199.127 191.561V197.604H198.136V191.561C198.136 189.773 197.107 188.607 195.28 188.607C193.376 188.607 191.88 189.851 191.88 192.474V197.604H190.908V187.889H191.88V189.734C192.618 188.297 193.862 187.675 195.358 187.675ZM216.334 184.003C218.783 184.003 220.57 185.81 220.57 188.219C220.57 190.609 218.783 192.416 216.334 192.416H212.74V197.604H211.71V184.003H216.334ZM216.334 191.444C218.2 191.444 219.54 190.084 219.54 188.219C219.54 186.334 218.2 184.974 216.334 184.974H212.74V191.444H216.334ZM230.881 184.061L229.113 186.528H228.161L229.716 184.061H230.881ZM232.144 187.889H233.116V197.604H232.144V195.758C231.406 197.195 230.162 197.817 228.666 197.817C226.354 197.817 224.897 196.282 224.897 193.931V187.889H225.888V193.931C225.888 195.719 226.918 196.885 228.744 196.885C230.648 196.885 232.144 195.641 232.144 193.018V187.889ZM243.496 187.675C246.274 187.675 248.528 189.87 248.528 192.746C248.528 195.622 246.274 197.817 243.496 197.817C241.611 197.817 240.115 196.846 239.318 195.35V197.604H238.347V184.003H239.318V190.142C240.115 188.646 241.611 187.675 243.496 187.675ZM243.438 196.885C245.75 196.885 247.557 195.058 247.557 192.746C247.557 190.434 245.75 188.607 243.438 188.607C241.125 188.607 239.318 190.434 239.318 192.746C239.318 195.058 241.125 196.885 243.438 196.885ZM253.1 197.604V183.42H254.072V197.604H253.1ZM259.782 185.537C259.354 185.537 259.004 185.188 259.004 184.76C259.004 184.352 259.354 184.003 259.782 184.003C260.209 184.003 260.559 184.352 260.559 184.76C260.559 185.188 260.209 185.537 259.782 185.537ZM259.296 197.604V187.889H260.267V197.604H259.296ZM269.941 197.817C267.007 197.817 264.831 195.622 264.831 192.746C264.831 189.87 267.007 187.675 269.941 187.675C271.845 187.675 273.477 188.646 274.177 190.162L273.38 190.628C272.817 189.404 271.495 188.607 269.941 188.607C267.59 188.607 265.822 190.434 265.822 192.746C265.822 195.058 267.59 196.885 269.941 196.885C271.515 196.885 272.797 196.069 273.438 194.864L274.254 195.35C273.477 196.846 271.845 197.817 269.941 197.817ZM287.067 187.889H288.058V197.604H287.067V195.408C286.251 196.865 284.755 197.817 282.89 197.817C280.131 197.817 277.857 195.622 277.857 192.746C277.857 189.87 280.131 187.675 282.89 187.675C284.755 187.675 286.251 188.627 287.067 190.084V187.889ZM282.967 196.885C285.28 196.885 287.067 195.058 287.067 192.746C287.067 190.434 285.28 188.607 282.967 188.607C280.655 188.607 278.848 190.434 278.848 192.746C278.848 195.058 280.655 196.885 282.967 196.885Z" fill="white"/>
<path d="M7.04795 30.5892H22.0113V106.49H7.04795V30.5892ZM84.435 30.5892C94.8443 30.5892 103.519 34.2397 110.458 41.5407C117.47 48.8416 120.976 57.8413 120.976 68.5397C120.976 79.2382 117.47 88.2379 110.458 95.5388C103.519 102.84 94.8443 106.49 84.435 106.49H54.2914V30.5892H84.435ZM84.435 92.1775C91.0131 92.1775 96.3623 90.0089 100.483 85.6717C104.603 81.2622 106.663 75.5515 106.663 68.5397C106.663 61.5279 104.603 55.8534 100.483 51.5162C96.3623 47.1067 91.0131 44.902 84.435 44.902H69.2548V92.1775H84.435ZM164.784 92.1775H196.77V106.49H149.82V30.5892H196.228V44.902H164.784V61.0581H193.517V75.154H164.784V92.1775ZM275.506 106.49L270.952 92.8281H240.7L236.146 106.49H219.99L246.555 30.5892H265.097L291.771 106.49H275.506ZM245.471 78.8406H266.289L255.88 47.8296L245.471 78.8406Z" fill="white"/>
<rect width="113.538" height="10.5055" fill="#0063AF"/>
<rect x="113.538" width="180" height="10.5055" fill="#E73339"/>
</svg>
